<svg id="wave" style="transform:rotate(0deg); transition: 0.3s" viewBox="0 0 1440 100" version="1.1" xmlns="http://www.w3.org/2000/svg"><defs><linearGradient id="sw-gradient-0" x1="0" x2="0" y1="1" y2="0"><stop stop-color="rgba(243, 106, 62, 1)" offset="0%"></stop><stop stop-color="rgba(255, 179, 11, 1)" offset="100%"></stop></linearGradient></defs><path style="transform:translate(0, 0px); opacity:1" fill="url(#sw-gradient-0)" d="M0,70L15,60C30,50,60,30,90,20C120,10,150,10,180,13.3C210,17,240,23,270,36.7C300,50,330,70,360,65C390,60,420,30,450,18.3C480,7,510,13,540,25C570,37,600,53,630,55C660,57,690,43,720,36.7C750,30,780,30,810,40C840,50,870,70,900,70C930,70,960,50,990,35C1020,20,1050,10,1080,20C1110,30,1140,60,1170,66.7C1200,73,1230,57,1260,55C1290,53,1320,67,1350,65C1380,63,1410,47,1440,40C1470,33,1500,37,1530,43.3C1560,50,1590,60,1620,61.7C1650,63,1680,57,1710,58.3C1740,60,1770,70,1800,70C1830,70,1860,60,1890,51.7C1920,43,1950,37,1980,36.7C2010,37,2040,43,2070,40C2100,37,2130,23,2145,16.7L2160,10L2160,100L2145,100C2130,100,2100,100,2070,100C2040,100,2010,100,1980,100C1950,100,1920,100,1890,100C1860,100,1830,100,1800,100C1770,100,1740,100,1710,100C1680,100,1650,100,1620,100C1590,100,1560,100,1530,100C1500,100,1470,100,1440,100C1410,100,1380,100,1350,100C1320,100,1290,100,1260,100C1230,100,1200,100,1170,100C1140,100,1110,100,1080,100C1050,100,1020,100,990,100C960,100,930,100,900,100C870,100,840,100,810,100C780,100,750,100,720,100C690,100,660,100,630,100C600,100,570,100,540,100C510,100,480,100,450,100C420,100,390,100,360,100C330,100,300,100,270,100C240,100,210,100,180,100C150,100,120,100,90,100C60,100,30,100,15,100L0,100Z"></path></svg>